<?xml version="1.0" standalone="no"?>
<!DOCTYPE svg PUBLIC "-//W3C//DTD SVG 20010904//EN"
 "http://www.w3.org/TR/2001/REC-SVG-20010904/DTD/svg10.dtd">
<svg version="1.0" xmlns="http://www.w3.org/2000/svg"
 width="2000.000000pt" height="549.000000pt" viewBox="0 0 2000.000000 549.000000"
 preserveAspectRatio="xMidYMid meet">

<g transform="translate(0.000000,549.000000) scale(0.100000,-0.100000)"
fill="#000000" stroke="none">
<path d="M3903 5123 c-106 -88 -315 -297 -411 -411 -48 -56 -91 -100 -97 -98
-155 69 -620 247 -697 268 -43 11 -49 10 -69 -7 -18 -17 -20 -27 -14 -70 9
-68 72 -377 91 -445 8 -30 17 -62 19 -70 35 -141 103 -385 117 -422 l10 -28
197 -1 c108 -1 225 -2 261 -4 36 -1 252 -6 480 -10 228 -4 453 -8 500 -10 47
-2 202 -4 344 -6 254 -3 260 -2 273 18 8 12 34 97 58 190 24 92 61 233 83 313
22 80 61 232 87 338 41 170 44 195 33 220 -23 48 -61 42 -221 -36 -78 -38
-216 -111 -307 -162 -91 -52 -182 -103 -202 -114 -28 -16 -42 -18 -54 -10 -17
10 -80 115 -244 408 -92 165 -123 206 -150 206 -11 0 -49 -26 -87 -57z"/>
<path d="M9968 3823 l-248 -3 0 -55 c0 -60 -1 -59 85 -70 28 -3 60 -9 73 -12
l22 -5 0 -703 0 -703 -42 -6 c-24 -3 -67 -8 -95 -12 l-53 -7 0 -53 0 -54 365
0 365 0 0 54 0 53 -67 7 c-38 3 -107 9 -155 12 l-88 7 0 247 0 248 198 4 c169
4 207 8 267 27 213 69 357 221 395 418 16 82 8 273 -14 333 -75 203 -252 283
-614 278 -81 -2 -258 -4 -394 -5z m576 -134 c93 -27 166 -98 192 -185 22 -72
24 -244 5 -324 -54 -221 -225 -320 -506 -294 l-100 9 -3 402 -2 402 52 5 c154
17 265 12 362 -15z"/>
<path d="M11851 3815 c-135 -30 -285 -122 -377 -233 -65 -78 -145 -238 -169
-335 -39 -162 -42 -353 -9 -528 47 -246 175 -438 354 -529 124 -63 333 -87
485 -56 135 28 268 100 366 199 206 207 288 541 223 906 -55 310 -242 520
-512 576 -90 19 -274 18 -361 0z m332 -128 c109 -50 206 -176 251 -327 62
-206 60 -558 -5 -760 -53 -165 -158 -294 -276 -341 -81 -32 -214 -32 -295 0
-149 58 -262 232 -303 468 -20 114 -20 383 0 499 44 257 155 420 323 475 85
28 228 22 305 -14z"/>
<path d="M13308 3823 l-238 -3 0 -54 0 -54 73 -12 c39 -6 80 -14 90 -16 16 -5
17 -47 17 -709 l0 -703 -42 -6 c-24 -3 -67 -8 -95 -12 l-53 -7 0 -53 0 -54
325 0 325 0 0 54 0 53 -62 7 c-35 3 -87 9 -115 12 l-53 6 0 304 0 304 150 0
149 0 33 -29 c47 -41 115 -161 219 -383 99 -210 151 -303 179 -318 10 -6 89
-10 174 -10 l156 0 0 55 c0 54 0 54 -37 64 -21 6 -43 11 -49 11 -28 0 -68 58
-204 300 -110 197 -169 282 -220 319 l-38 28 61 28 c120 55 229 196 257 332
18 83 8 235 -19 304 -43 111 -135 184 -286 225 -66 18 -270 23 -697 17z m558
-127 c79 -24 128 -65 164 -139 75 -152 39 -396 -72 -491 -66 -57 -108 -66
-305 -66 l-173 0 0 350 0 350 23 5 c81 18 289 13 363 -9z"/>
<path d="M1840 3809 c-113 -46 -124 -218 -17 -277 27 -14 66 -18 234 -20 l202
-3 5 -27 c21 -111 27 -325 29 -1057 2 -637 5 -815 15 -832 7 -13 27 -30 44
-39 28 -14 142 -15 1227 -10 658 4 1229 9 1269 12 91 7 126 32 141 102 5 26
89 378 187 782 97 404 177 747 177 763 1 39 -21 74 -58 92 -29 13 -185 15
-1367 15 l-1334 0 -27 248 c-15 136 -27 250 -27 255 0 11 -671 7 -700 -4z"/>
<path d="M5740 3766 c0 -61 -1 -60 90 -71 30 -4 63 -9 73 -11 16 -5 17 -47 17
-709 l0 -703 -37 -6 c-21 -3 -62 -8 -90 -12 l-53 -6 0 -54 0 -54 623 0 623 0
29 178 c16 97 29 186 29 196 1 15 -12 23 -59 37 -45 14 -61 15 -67 6 -4 -7
-31 -69 -60 -139 -52 -125 -54 -127 -88 -132 -19 -3 -147 -8 -285 -11 -137 -3
-267 -8 -287 -11 l-38 -6 0 341 0 341 189 0 c172 0 190 -2 195 -17 3 -10 10
-55 17 -100 l12 -83 59 0 58 0 0 260 0 261 -57 -3 -58 -3 -15 -90 -16 -90 -99
-6 c-55 -4 -142 -7 -192 -8 l-93 -1 0 320 0 320 148 0 c82 0 210 -3 284 -6
l136 -7 12 -41 c6 -23 21 -71 32 -108 l20 -68 59 0 59 0 0 31 c0 40 -20 267
-26 297 l-4 22 -570 0 -570 0 0 -54z"/>
<path d="M7360 3765 c0 -30 1 -55 3 -55 1 -1 53 -7 115 -14 62 -8 116 -16 119
-19 4 -5 -124 -1140 -154 -1364 l-6 -41 -51 -7 c-28 -3 -70 -9 -93 -12 l-43
-5 0 -54 0 -54 290 0 290 0 0 54 0 54 -67 6 c-144 14 -153 17 -153 40 0 11 20
244 44 516 25 272 53 583 62 690 9 107 20 199 25 204 4 4 24 -47 45 -115 21
-68 131 -403 246 -744 114 -341 208 -621 208 -622 0 -2 33 -3 73 -3 l72 0 188
588 c103 323 208 657 232 742 25 84 47 155 50 158 8 9 13 -21 30 -183 61 -595
125 -1232 125 -1241 0 -11 -23 -16 -142 -30 l-58 -6 0 -54 0 -54 320 0 320 0
0 54 0 55 -57 6 c-129 16 -138 19 -142 45 -14 102 -178 1376 -176 1378 1 1 42
7 91 12 167 19 154 13 154 75 l0 55 -293 0 -293 0 -162 -522 c-89 -288 -173
-572 -187 -633 -38 -166 -37 -166 -74 -24 -26 102 -210 702 -332 1087 l-30 92
-294 0 -295 0 0 -55z"/>
<path d="M14800 3766 c0 -62 -2 -61 95 -71 33 -3 72 -8 88 -11 l27 -6 0 -703
0 -703 -47 -6 c-27 -3 -74 -8 -105 -12 l-58 -6 0 -54 0 -54 331 0 330 0 -3 52
-3 53 -60 8 c-33 4 -79 10 -102 13 l-43 5 0 704 c0 662 1 704 18 709 9 2 44 7
77 11 120 12 116 10 113 68 l-3 52 -327 3 -328 2 0 -54z"/>
<path d="M15770 3766 c0 -60 -1 -59 80 -71 89 -13 80 40 80 -473 0 -271 5
-494 11 -547 45 -368 244 -545 614 -546 147 0 206 12 311 61 139 67 232 184
286 361 21 72 22 89 26 601 l3 527 27 5 c15 3 45 8 67 12 76 11 75 10 75 70
l0 54 -260 0 -260 0 0 -55 c0 -48 3 -55 23 -60 26 -6 148 -25 160 -25 5 0 7
-231 4 -512 -3 -446 -6 -522 -22 -583 -50 -203 -153 -309 -324 -336 -195 -30
-380 66 -441 229 -47 125 -50 157 -50 694 l0 507 33 5 c17 3 59 10 91 16 33 5
61 10 63 10 2 0 3 25 3 55 l0 55 -300 0 -300 0 0 -54z"/>
<path d="M17640 3766 c0 -63 -13 -57 154 -76 49 -5 90 -11 91 -12 3 -5 -163
-1399 -167 -1403 -2 -2 -45 -9 -96 -16 l-92 -12 0 -53 0 -54 290 0 290 0 0 55
c0 46 -3 55 -17 55 -29 0 -197 20 -200 24 -2 2 19 258 47 569 67 748 78 858
84 864 7 7 4 17 76 -217 34 -107 143 -437 243 -732 l182 -538 72 0 71 0 11 33
c5 17 91 286 190 597 150 471 206 652 257 833 12 39 22 12 33 -85 19 -168 131
-1281 131 -1304 0 -23 -3 -24 -142 -40 l-58 -6 0 -54 0 -54 320 0 320 0 0 54
0 54 -42 6 c-24 3 -67 8 -95 12 -36 4 -54 12 -57 23 -11 38 -178 1382 -173
1387 3 4 57 12 119 20 62 7 114 13 116 14 1 0 2 25 2 55 l0 55 -290 0 -290 0
-10 -24 c-37 -97 -317 -1022 -342 -1130 -18 -75 -35 -136 -39 -136 -3 0 -21
55 -38 123 -18 67 -105 356 -195 642 l-162 520 -297 3 -297 2 0 -54z"/>
<path d="M2870 3772 c0 -5 8 -13 18 -17 17 -7 225 -19 502 -30 85 -3 236 -10
335 -16 321 -17 1089 -24 1123 -10 32 13 51 41 29 42 -84 4 -256 8 -567 14
-206 3 -463 8 -570 10 -107 2 -347 7 -532 11 -227 4 -338 3 -338 -4z"/>
<path d="M1037 3150 c-53 -42 -58 -136 -10 -185 l26 -25 506 0 c565 0 540 -3
562 69 16 55 4 105 -32 135 l-31 26 -497 0 c-484 0 -499 -1 -524 -20z"/>
<path d="M80 2402 c-55 -56 -46 -147 19 -185 27 -16 102 -17 986 -17 1058 0
997 -4 1030 66 22 47 13 98 -25 136 l-28 28 -977 0 -977 0 -28 -28z"/>
<path d="M5770 1210 l0 -580 7065 0 7065 0 0 580 0 580 -7065 0 -7065 0 0
-580z m3438 298 l3 -38 -105 0 -106 0 0 -280 0 -280 -45 0 -45 0 0 280 0 280
-100 0 -100 0 0 40 0 40 248 -2 247 -3 3 -37z m782 -103 l0 -145 168 2 167 3
3 143 3 142 44 0 45 0 0 -320 0 -320 -45 0 -45 0 0 140 0 140 -170 0 -170 0 0
-140 0 -140 -45 0 -45 0 0 320 0 320 45 0 45 0 0 -145z m1585 105 l0 -35 -152
-3 -153 -3 0 -99 0 -99 123 -3 122 -3 0 -35 0 -35 -122 -3 -123 -3 0 -104 0
-105 155 0 155 0 0 -35 0 -35 -200 0 -200 0 0 320 0 320 198 -2 197 -3 0 -35z
m1563 14 c55 -27 63 -45 38 -79 -14 -19 -15 -19 -62 2 -72 32 -89 35 -133 23
-47 -13 -71 -42 -71 -88 0 -47 33 -73 138 -111 119 -42 162 -88 162 -173 -1
-165 -191 -251 -353 -160 -58 33 -69 58 -37 87 17 16 24 17 38 7 75 -53 154
-67 212 -37 37 19 50 43 50 91 0 53 -28 78 -121 109 -43 15 -92 36 -110 48
-102 70 -86 226 29 287 57 29 154 27 220 -6z m882 -119 l0 -145 170 0 170 0 0
145 0 145 45 0 45 0 0 -320 0 -320 -45 0 -45 0 0 145 0 145 -170 0 -170 0 0
-145 0 -145 -45 0 -45 0 0 320 0 320 45 0 45 0 0 -145z m1583 129 c110 -37
187 -149 195 -283 8 -148 -51 -261 -165 -317 -51 -26 -68 -29 -148 -28 -107 1
-146 15 -215 80 -110 103 -131 285 -47 425 33 56 103 111 161 128 51 15 168
12 219 -5z m1238 -11 c62 -28 101 -80 107 -143 7 -71 -5 -116 -41 -157 -45
-51 -102 -73 -207 -80 l-90 -6 0 -113 0 -114 -45 0 -45 0 0 313 c0 173 3 317
8 321 4 5 66 6 137 4 104 -3 139 -8 176 -25z"/>
<path d="M15401 1459 c-88 -35 -131 -112 -131 -234 0 -95 19 -145 73 -192 92
-80 258 -62 322 35 62 95 54 263 -18 341 -49 53 -175 79 -246 50z"/>
<path d="M16610 1345 l0 -125 70 0 c115 0 168 34 177 113 6 54 -15 101 -57
122 -19 10 -57 15 -110 15 l-80 0 0 -125z"/>
<path d="M1054 1650 c-76 -31 -82 -167 -10 -211 29 -18 55 -19 516 -19 463 0
486 1 517 20 61 37 68 146 12 196 -20 18 -44 19 -518 21 -273 1 -506 -2 -517
-7z"/>
<path d="M2535 1412 c-214 -80 -321 -292 -255 -506 33 -107 101 -184 210 -239
61 -30 71 -32 170 -32 92 0 112 4 162 27 314 146 315 583 3 733 -79 38 -213
46 -290 17z"/>
<path d="M3683 1416 c-105 -34 -204 -123 -251 -224 -23 -50 -26 -70 -26 -162
-1 -98 1 -109 31 -170 40 -83 110 -153 193 -193 61 -30 72 -32 170 -32 92 0
112 4 160 26 85 40 154 108 197 197 36 72 38 81 38 172 0 91 -2 100 -38 172
-43 89 -108 152 -195 194 -47 23 -74 28 -147 31 -57 2 -105 -2 -132 -11z"/>
</g>
</svg>
